<svg version="1.1" viewBox="0.0 0.0 960.0 540.0" fill="none" stroke="none" stroke-linecap="square" stroke-miterlimit="10" xmlns:xlink="http://www.w3.org/1999/xlink" xmlns="http://www.w3.org/2000/svg"><clipPath id="g20dc4d2d5eb_0_139.0"><path d="m0 0l960.0 0l0 540.0l-960.0 0l0 -540.0z" clip-rule="nonzero"/></clipPath><g clip-path="url(#g20dc4d2d5eb_0_139.0)"><path fill="#000000" fill-opacity="0.0" d="m0 0l960.0 0l0 540.0l-960.0 0z" fill-rule="evenodd"/><path fill="#ffffff" d="m196.36641 227.45557l0.75523376 107.96112l-150.36108 -40.555786l0.31427383 -43.7399l112.10512 29.631744l0 -34.535843l-111.1891 -29.792542l0.28747177 -112.87741l148.94077 39.51793l-0.0438385 43.026093l-113.591225 -31.01065l0 31.159256l112.78239 31.2957z" fill-rule="evenodd"/><path stroke="#000000" stroke-width="3.0" stroke-linejoin="round" stroke-linecap="butt" d="m196.36641 227.45557l0.75523376 107.96112l-150.36108 -40.555786l0.31427383 -43.7399l112.10512 29.631744l0 -34.535843l-111.1891 -29.792542l0.28747177 -112.87741l148.94077 39.51793l-0.0438385 43.026093l-113.591225 -31.01065l0 31.159256l112.78239 31.2957z" fill-rule="evenodd"/><path fill="#000000" d="m46.867744 250.0788l23.032028 -13.747589l89.16567 23.843292l0.11206055 20.315643z" fill-rule="evenodd"/><path stroke="#000000" stroke-width="1.0" stroke-linejoin="round" stroke-linecap="butt" d="m46.867744 250.0788l23.032028 -13.747589l89.16567 23.843292l0.11206055 20.315643z" fill-rule="evenodd"/><path fill="#000000" d="m47.7399 102.780876l34.336784 -19.560417l115.09872 30.140923l-0.08148193 29.285805z" fill-rule="evenodd"/><path stroke="#000000" stroke-width="1.0" stroke-linejoin="round" stroke-linecap="butt" d="m47.7399 102.780876l34.336784 -19.560417l115.09872 30.140923l-0.08148193 29.285805z" fill-rule="evenodd"/><path fill="#000000" d="m197.00407 217.18532l36.372772 -9.976318l-0.11450195 -0.11694336l-149.49867 -39.77617l0 18.464127z" fill-rule="evenodd"/><path stroke="#000000" stroke-width="1.0" stroke-linejoin="round" stroke-linecap="butt" d="m197.00407 217.18532l36.372772 -9.976318l-0.11450195 -0.11694336l-149.49867 -39.77617l0 18.464127z" fill-rule="evenodd"/><path fill="#000000" d="m281.09415 161.14378l-0.16567993 89.79422l18.459259 15.03392l0.121795654 -109.698135z" fill-rule="evenodd"/><path stroke="#000000" stroke-width="1.0" stroke-linejoin="round" stroke-linecap="butt" d="m281.09415 161.14378l-0.16567993 89.79422l18.459259 15.03392l0.121795654 -109.698135z" fill-rule="evenodd"/><path fill="#000000" d="m47.582775 439.16757l6.248905 -0.01461792l30.25299 0.04385376l-0.19246674 -78.13934l96.63999 25.936005l0.5189209 52.33734l33.410324 0l-0.16566467 -51.93048l84.26886 -24.795868l-0.6845703 76.47296l40.918762 0.06335449l0.041412354 -128.46191l-141.44452 40.477814l-150.5828 -41.11853z" fill-rule="evenodd"/><path stroke="#000000" stroke-width="1.0" stroke-linejoin="round" stroke-linecap="butt" d="m47.582775 439.16757l6.248905 -0.01461792l30.25299 0.04385376l-0.19246674 -78.13934l96.63999 25.936005l0.5189209 52.33734l33.410324 0l-0.16566467 -51.93048l84.26886 -24.795868l-0.6845703 76.47296l40.918762 0.06335449l0.041412354 -128.46191l-141.44452 40.477814l-150.5828 -41.11853z" fill-rule="evenodd"/><path fill="#000000" d="m338.95825 104.29377l-32.496735 -21.07331l-109.020874 30.24324l0 29.249268z" fill-rule="evenodd"/><path stroke="#000000" stroke-width="1.0" stroke-linejoin="round" stroke-linecap="butt" d="m338.95825 104.29377l-32.496735 -21.07331l-109.020874 30.24324l0 29.249268z" fill-rule="evenodd"/><path fill="#000000" d="m281.2923 250.77547l-47.801086 12.763351l-0.11206055 19.889313l65.26877 -17.489624z" fill-rule="evenodd"/><path stroke="#000000" stroke-width="1.0" stroke-linejoin="round" stroke-linecap="butt" d="m281.2923 250.77547l-47.801086 12.763351l-0.11206055 19.889313l65.26877 -17.489624z" fill-rule="evenodd"/><path fill="#ffffff" d="m197.75491 142.98935l141.03036 -37.707817l0.11694336 189.85468l-141.61018 40.280457l0 -42.0589l-0.17297363 -75.822495l36.521378 -9.459839l0.15835571 75.99788l66.04349 -17.696686l0 -110.999084l-101.919266 30.74997z" fill-rule="evenodd"/><path stroke="#000000" stroke-width="3.0" stroke-linejoin="round" stroke-linecap="butt" d="m197.75491 142.98935l141.03036 -37.707817l0.11694336 189.85468l-141.61018 40.280457l0 -42.0589l-0.17297363 -75.822495l36.521378 -9.459839l0.15835571 75.99788l66.04349 -17.696686l0 -110.999084l-101.919266 30.74997z" fill-rule="evenodd"/><path fill="#000000" fill-opacity="0.0" d="m338.89993 295.51886l0 5.6203613l-141.27887 40.32187l-150.76062 -41.201355l-0.10719299 -5.5691833l150.651 40.723846z" fill-rule="evenodd"/><path fill="#000000" fill-opacity="0.0" d="m374.0761 154.30156l555.0866 -0.09449768l0 249.70078l-555.0866 0.09451294z" fill-rule="evenodd"/><path fill="#000000" d="m389.10294 229.33815l14.8125 -1.4400177q1.328125 7.452896 5.40625 10.952194q4.09375 3.4993134 11.046875 3.4981232q7.34375 -0.0012512207 11.078125 -3.1112518q3.734375 -3.1256409 3.734375 -7.281891q0 -2.671875 -1.578125 -4.5466003q-1.5625 -1.8903656 -5.46875 -3.2646942q-2.671875 -0.9370575 -12.1875 -3.294815q-12.25 -3.0291595 -17.1875 -7.4501953q-6.9375 -6.233185 -6.9375 -15.170685q0 -5.765625 3.265625 -10.781815q3.265625 -5.0161743 9.40625 -7.642227q6.15625 -2.6260376 14.84375 -2.6275177q14.1875 -0.0024261475 21.359375 6.230728q7.1875 6.2175293 7.546875 16.608093l-15.21875 0.674469q-0.984375 -5.812332 -4.203125 -8.358658q-3.203125 -2.5463257 -9.640625 -2.5452423q-6.640625 0.0011291504 -10.390625 2.72052q-2.40625 1.750412 -2.40625 4.687912q0 2.671875 2.25 4.5777435q2.890625 2.4057617 14.0 5.0288696q11.109375 2.623108 16.421875 5.4347076q5.328125 2.7959595 8.328125 7.654831q3.015625 4.858856 3.015625 12.015106q0 6.46875 -3.609375 12.12561q-3.59375 5.6568756 -10.171875 8.4236145q-6.578125 2.751114 -16.40625 2.7527924q-14.296875 0.0024261475 -21.96875 -6.6056366q-7.65625 -6.608078 -9.140625 -19.264069zm142.09677 24.507065l-16.5625 0.002822876l-6.5780945 -17.123886l-30.140625 0.005126953l-6.21875 17.126068l-16.15625 0.002746582l29.359375 -75.39563l16.109375 -0.002746582l30.18747 75.3855zm-28.03122 -29.823364l-10.390625 -27.982605l-10.1875 27.986115l20.578125 -0.0035095215zm36.252106 29.82196l0 -75.390625l14.8125 -0.0025177002l30.859375 50.3385l0 -50.343765l14.140625 -0.0023956299l0 75.390625l-15.265625 0.0025939941l-30.40625 -49.166702l0 49.171875l-14.140625 0.0024108887zm132.39062 -75.41316l15.171875 -0.0025787354l0 47.71875q0 9.359375 -1.65625 14.406525q-2.203125 6.5785065 -8.015625 10.563873q-5.8125 3.9853668 -15.328125 3.9869843q-11.15625 0.0018920898 -17.1875 -6.2470703q-6.015625 -6.2489777 -6.0625 -18.327103l14.359375 -1.6430664q0.25 6.468704 1.890625 9.15593q2.46875 4.0620728 7.515625 4.0612183q5.09375 -8.69751E-4 7.203125 -2.9074707q2.109375 -2.9066162 2.109375 -12.062866l0 -48.703125zm28.281616 38.151443q0 -11.515625 3.4375 -19.344345q2.578125 -5.7504425 7.015625 -10.329315q4.453125 -4.578888 9.765625 -6.798538q7.03125 -2.9855652 16.25 -2.9871368q16.65625 -0.0028381348 26.65625 10.339203q10.0 10.342056 10.0 28.748306q0 18.25 -9.921875 28.564194q-9.921875 10.314178 -26.53125 10.317017q-16.828125 0.0028533936 -26.75 -10.245453q-9.921875 -10.263931 -9.921875 -28.263931zm15.6875 -0.5182953q0 12.8125 5.90625 19.420868q5.921875 6.608368 15.015625 6.6068115q9.109375 -0.0015411377 14.9375 -6.565033q5.84375 -6.563507 5.84375 -19.672882q0 -12.96875 -5.6875 -19.342773q-5.671875 -6.3740387 -15.09375 -6.3724365q-9.40625 0.0016021729 -15.171875 6.4557037q-5.75 6.454117 -5.75 19.469742zm65.47443 13.207596l14.8125 -1.4400177q1.328125 7.452896 5.40625 10.952209q4.09375 3.499298 11.046875 3.498108q7.34375 -0.0012359619 11.078125 -3.1112518q3.734375 -3.1256409 3.734375 -7.281891q0 -2.671875 -1.578125 -4.5466003q-1.5625 -1.8903656 -5.46875 -3.2646942q-2.671875 -0.93704224 -12.1875 -3.2947998q-12.25 -3.0291748 -17.1875 -7.4502106q-6.9375 -6.233185 -6.9375 -15.170685q0 -5.765625 3.265625 -10.781815q3.265625 -5.0161743 9.40625 -7.642227q6.15625 -2.6260376 14.84375 -2.6275177q14.1875 -0.0024108887 21.359375 6.2307434q7.1875 6.217514 7.546875 16.608078l-15.21875 0.674469q-0.984375 -5.812332 -4.203125 -8.358658q-3.203125 -2.5463257 -9.640625 -2.545227q-6.640625 0.0011291504 -10.390625 2.72052q-2.40625 1.7503967 -2.40625 4.6878967q0 2.671875 2.25 4.5777435q2.890625 2.4057617 14.0 5.0288696q11.109375 2.623108 16.421875 5.4347076q5.328125 2.7959747 8.328125 7.654831q3.015625 4.858856 3.015625 12.015106q0 6.46875 -3.609375 12.125626q-3.59375 5.6568604 -10.171875 8.423599q-6.578125 2.7511292 -16.40625 2.7527924q-14.296875 0.0024414062 -21.96875 -6.6056366q-7.65625 -6.6080627 -9.140625 -19.264069zm74.0968 24.518646l0 -75.390625l55.90631 -0.009521484l0 12.75l-40.671936 0.0069274902l0 16.71875l37.84381 -0.006454468l0 12.703125l-37.84381 0.006454468l0 20.515625l42.109436 -0.007171631l0 12.703125l-57.34381 0.009765625zm19.359375 -79.70642l7.09375 -15.391846l16.203186 -0.002746582l-14.156311 15.393036l-9.140625 0.0015563965z" fill-rule="nonzero"/><path fill="#000000" d="m585.9939 361.2515l0.40625 1.968689q0 1.234375 -1.28125 2.9220886q-3.390625 4.422455 -10.875 10.158112q-7.484375 5.7356567 -11.03125 5.7362366q-3.546875 6.1035156E-4 -5.5625 -2.077179q-2.0 -2.0777588 -2.0 -4.765259q0 -3.1875 6.6875 -14.079285q10.03125 -16.204834 25.609375 -37.86374q-3.296875 3.3912048 -17.484375 18.31549q-31.421875 32.91159 -36.71875 37.287506q-0.875 0.7189026 -2.546875 0.71917725q-1.671875 2.746582E-4 -3.53125 -1.3587646q-1.84375 -1.3590698 -1.84375 -3.0621948l0 -0.25q0.203125 -2.1719055 9.921875 -21.142303q9.71875 -18.986053 16.3125 -30.190277q-9.71875 10.689148 -19.65625 23.862701q-18.875 25.003235 -27.609375 42.582825q-0.78125 1.6564026 -1.90625 1.6565857q-1.125 1.8310547E-4 -3.296875 -0.5619507q-4.515625 -1.2336121 -4.515625 -4.327362q0 -1.84375 7.5625 -13.235657q7.546875 -11.407532 17.53125 -24.90924q9.984375 -13.501678 20.671875 -25.987885q14.765625 -17.283752 18.984375 -17.284485q0.65625 -9.1552734E-5 1.265625 0.32791138q0.625 0.32803345 0.78125 0.32800293q0.15625 -3.0517578E-5 0.3125 -0.15631104q0.671875 -0.8126221 2.640625 -0.81295776q1.984375 -3.3569336E-4 3.859375 0.78060913q1.890625 0.7652893 1.890625 1.7340393q0 0.625 -5.15625 9.82901q-17.21875 30.549805 -23.140625 41.972687q5.65625 -6.844696 16.171875 -18.158997q10.53125 -11.314301 22.09375 -22.581879q15.078125 -14.611938 18.0 -14.612457q1.1875 -1.8310547E-4 2.984375 0.5151367q3.1875 0.9213257 6.125 0.9208069q0.8125 0.15612793 1.40625 0.7029114q0.59375 0.5311279 0.59375 1.1092529q0 0.5625 -0.3125 0.92193604q-16.703125 22.221588 -28.171875 39.19229q-11.46875 16.970703 -14.140625 22.93991q5.390625 -1.1415405 16.09375 -12.908997q0.453125 -0.62506104 0.65625 -0.82821655q0.21875 -0.20318604 0.375 -0.40631104q0.875 -1.0314026 1.328125 1.2810059q0.203125 1.3280945 0.28125 1.8749695q0.078125 0.5468445 0.15625 1.1405945q0.078125 0.5780945 0.078125 0.7812195zm46.236877 2.8202515q0.984375 -1.5258789E-4 1.1875 1.4998169q0.203125 1.4843445 0.203125 3.0780945q0 1.59375 -0.3125 2.2187805q-1.484375 2.8752747 -6.53125 7.016754q-5.03125 4.1414795 -9.5625 4.1422424q-2.78125 4.8828125E-4 -5.15625 -1.67099q-2.359375 -1.6714783 -2.359375 -5.8277283q0 -4.171875 2.21875 -8.187866q-12.75 16.002167 -20.015625 16.003387q-2.875 4.8828125E-4 -4.65625 -2.0617065q-1.765625 -2.0465698 -1.765625 -4.23407q0 -2.1875 0.609375 -4.5313416q0.625 -2.343872 1.3125 -4.187744q0.703125 -1.8594666 2.0625 -4.5784607q1.359375 -2.7346191 2.03125 -3.9690857q0.671875 -1.2344971 2.140625 -3.7191162q1.46875 -2.5002747 3.859375 -6.7194214q2.390625 -4.2191467 3.953125 -6.2506714q1.5625 -2.0315247 3.046875 -2.0473938q1.5 -0.03149414 2.625 1.2026672q1.140625 1.2341919 1.140625 2.015442q0 0.765625 -3.4375 6.93808q-10.1875 18.40799 -10.1875 21.43924q0 0.78125 0.5625 0.78115845q2.46875 -4.272461E-4 12.28125 -10.705231q9.828125 -10.704773 11.375 -13.705048q1.546875 -3.0158997 3.015625 -5.063019q1.46875 -2.0627441 2.1875 -2.5316162q2.203125 -1.4378662 5.703125 -1.5322266q0.5625 -9.1552734E-5 0.875 0.046722412q0.3125 0.046844482 0.71875 0.8748779q0.40625 0.82806396 0.40625 1.281189q-0.453125 1.4375916 -4.078125 7.672577q-3.625 6.2193604 -4.046875 7.0475464q-6.0625 12.547913 -6.0625 16.344788q0 2.15625 1.640625 2.1559753q2.984375 -0.4067688 7.203125 -4.7824707q1.546875 -1.5940247 3.0625 -3.2348938q1.515625 -1.6408997 1.875 -1.9222107q0.359375 -0.29693604 0.875 -0.2970276zm33.486206 -22.318176q0 3.390625 -2.765625 5.969208q-2.75 2.5629578 -6.234375 2.563568q-1.140625 1.8310547E-4 -1.5 -0.53100586q-0.359375 -0.54681396 -0.359375 -1.421814q0 -0.875 0.203125 -1.6875305q-1.84375 0.6096802 -4.109375 1.9069519q-2.265625 1.2816467 -5.5625 3.797821q-3.28125 2.5161743 -3.28125 3.7505493q0 0.421875 1.203125 0.4216919q1.21875 -2.1362305E-4 3.734375 -0.84439087q2.515625 -0.85980225 3.515625 -0.85998535q1.0 -1.5258789E-4 1.3125 0.10916138q0.671875 0.35925293 1.4375 1.5622559q0.78125 1.2029724 0.78125 1.9060974q0 0.6875 -1.34375 1.8283691q-1.328125 1.1252136 -3.03125 1.7192688q-1.703125 0.59402466 -2.265625 0.8910217q-10.84375 6.079956 -10.84375 8.345581q0 4.0 6.828125 3.9988403q4.375 -7.324219E-4 8.796875 -2.7671204q3.765625 -2.3756409 6.765625 -4.8136597q3.015625 -2.4380188 3.8125 -3.0006409q0.796875 -0.5782776 1.203125 -0.5783386q1.34375 -2.1362305E-4 1.34375 2.9841614q0 2.984375 -0.359375 3.937561q-0.359375 0.95318604 -2.0625 2.3440857q-11.0 8.939392 -20.828125 8.94104q-5.25 9.1552734E-4 -8.390625 -1.4360657q-5.75 -2.6240234 -5.75 -8.014648q0 -7.09375 9.8125 -10.751678q-1.953125 -0.8746643 -2.515625 -2.2339478q-0.5625 -1.3748779 -0.5625 -4.374878q0 -3.015625 2.796875 -6.3754883q2.8125 -3.3754883 6.875 -5.5324097q9.046875 -4.8921814 16.140625 -4.8933716q1.703125 -3.0517578E-4 3.453125 0.82751465q1.75 0.82785034 1.75 2.3122253zm40.36682 -34.928772q-10.859375 16.298737 -21.140625 34.09735q2.375 -1.2347717 5.328125 -1.76651q2.953125 -0.5473938 4.15625 -0.5476074q1.21875 -1.8310547E-4 2.09375 0.07778931q0.875 0.07797241 2.234375 0.5777283q1.359375 0.48416138 2.34375 1.3589783q2.359375 2.0933533 2.359375 5.9527283q0 3.859375 -2.078125 8.469116q-2.078125 4.5940857 -5.65625 9.235321q-3.578125 4.6256104 -7.828125 8.610718q-4.234375 3.9851074 -9.125 6.5171814q-4.890625 2.516449 -9.09375 2.5171814q-1.953125 3.0517578E-4 -4.5 -2.514862q-2.546875 -2.5308228 -2.546875 -6.6401978q0 -4.125 3.546875 -12.766235q3.546875 -8.641235 8.609375 -17.563965q5.0625 -8.9227295 10.328125 -17.40802q5.28125 -8.48526 8.984375 -13.876526q3.703125 -5.4068604 4.515625 -6.219513q0.828125 -0.8282776 3.015625 -1.3911438q2.1875 -0.5784912 3.78125 -0.54751587q1.59375 0.015350342 1.59375 1.4684753q0 0.921875 -0.921875 2.3595276zm-13.890625 49.37738q2.109375 -3.7034912 2.109375 -6.734741q0 -3.046875 -1.9375 -3.0465393q-1.921875 3.3569336E-4 -5.90625 1.6728821q-3.984375 1.6725464 -4.546875 1.6726379q-0.5625 9.1552734E-5 -1.484375 -0.92160034q-10.03125 18.064209 -10.03125 23.048584q0 2.3125 1.484375 2.3122253q3.546875 -6.1035156E-4 10.234375 -5.9392395q6.6875 -5.938629 10.078125 -12.064209zm53.44403 -53.196594q2.46875 -4.272461E-4 4.34375 1.4680176q1.875 1.4684143 1.875 4.3590393q0 2.875 -3.1875 9.016174q-3.1875 6.1411743 -7.671875 12.548187q-4.46875 6.407013 -10.125 13.611084q-8.953125 11.407776 -17.171875 20.518555q-0.0625 0.625 -0.453125 2.2969666q-0.375 1.671936 -0.375 3.375061q0 1.6875 1.5625 3.0466003q1.578125 1.3591003 3.890625 1.3587036q2.3125 -3.9672852E-4 4.953125 -1.641449q2.65625 -1.6410828 4.609375 -3.6570435q5.140625 -5.29776 6.375 -5.2979736q1.234375 -2.1362305E-4 1.234375 3.7497864l0 1.03125q0 2.015625 -0.71875 2.937622q-4.3125 5.2976074 -9.71875 7.8923035q-5.390625 2.5946655 -10.234375 2.5954895q-4.828125 8.239746E-4 -7.359375 -2.9518738q-2.515625 -2.9526978 -2.515625 -8.093323q0 -10.03125 5.375 -23.57904q5.375 -13.563416 12.109375 -23.0802q15.171875 -21.502563 23.203125 -21.503937zm-2.3125 8.547272q0 -0.78125 -0.515625 -0.78115845q-1.8125 3.0517578E-4 -9.46875 10.298462q-7.65625 10.282562 -11.078125 16.408142q-3.421875 6.109955 -6.453125 15.376099q6.0625 -7.2041626 16.78125 -22.455963q10.734375 -15.251831 10.734375 -18.845581zm22.217407 30.183716q0 3.390625 -2.765625 5.969208q-2.75 2.5629883 -6.234375 2.563568q-1.140625 1.8310547E-4 -1.5 -0.53100586q-0.359375 -0.54681396 -0.359375 -1.421814q0 -0.875 0.203125 -1.6875305q-1.84375 0.6097107 -4.109375 1.9069519q-2.265625 1.2816467 -5.5625 3.797821q-3.28125 2.5162048 -3.28125 3.7505798q0 0.421875 1.203125 0.42166138q1.21875 -2.1362305E-4 3.734375 -0.84439087q2.515625 -0.85980225 3.515625 -0.85998535q1.0 -1.5258789E-4 1.3125 0.10916138q0.671875 0.35925293 1.4375 1.5622559q0.78125 1.2030029 0.78125 1.9061279q0 0.6875 -1.34375 1.8283386q-1.328125 1.1252441 -3.03125 1.7192688q-1.703125 0.5940552 -2.265625 0.8910217q-10.84375 6.079956 -10.84375 8.345581q0 4.0 6.828125 3.9988403q4.375 -7.324219E-4 8.796875 -2.7671204q3.765625 -2.3756409 6.765625 -4.8136597q3.015625 -2.4380188 3.8125 -3.0006409q0.796875 -0.5782471 1.203125 -0.5783386q1.34375 -2.1362305E-4 1.34375 2.9841614q0 2.984375 -0.359375 3.937561q-0.359375 0.95318604 -2.0625 2.3440857q-11.0 8.939392 -20.828125 8.941071q-5.25 8.8500977E-4 -8.390625 -1.4360962q-5.75 -2.6240234 -5.75 -8.014648q0 -7.09375 9.8125 -10.751648q-1.953125 -0.8746643 -2.515625 -2.2339478q-0.5625 -1.3749084 -0.5625 -4.3749084q0 -3.015625 2.796875 -6.3754883q2.8125 -3.3754578 6.875 -5.5324097q9.046875 -4.8921814 16.140625 -4.8933716q1.703125 -3.0517578E-4 3.453125 0.82754517q1.75 0.8278198 1.75 2.3121948zm3.6949463 28.18686l-0.046875 0.8125q0 1.296875 0.96875 2.2185974q0.984375 0.9217224 1.8125 0.9215698q6.171875 -0.0010375977 10.921875 -1.8456116q4.75 -1.8601685 4.75 -3.7039185q0 -0.875 -1.71875 -1.5153503q-1.71875 -0.6559448 -5.8125 -1.5927429q-4.078125 -0.9524536 -5.9375 -1.4833679q-1.84375 -0.5465698 -2.9375 -1.0151367q-1.078125 -0.4685669 -2.203125 -1.2808838q-2.421875 -1.7026978 -2.421875 -5.0620728q0 -3.375 2.5 -6.6879272q2.5 -3.3285522 6.25 -5.688568q3.75 -2.3756409 8.078125 -4.1732483q8.53125 -3.5483398 14.34375 -3.5493164q5.703125 -9.765625E-4 7.046875 2.4675598q0.40625 0.87490845 0.40625 1.9530334l0 0.359375q0 2.734375 -1.15625 4.2814636q-1.15625 1.5314331 -3.65625 2.7662354q-2.484375 1.2348022 -3.953125 1.2350464q-1.46875 2.4414062E-4 -1.859375 -0.2027893q-0.375 -0.20306396 -0.640625 -0.53115845q-0.25 -0.34368896 -0.640625 -0.49987793q-0.375 -0.15618896 -0.375 -0.76556396q0 -0.625 0.5 -1.2657166q0.515625 -0.64071655 0.734375 -1.3594971q-3.40625 0.15682983 -7.109375 1.5793457q-3.703125 1.4068604 -6.359375 3.157318q-2.640625 1.7504578 -4.390625 3.344513q-1.75 1.5940247 -1.75 2.3440247q0 0.734375 2.375 1.2027283q10.640625 2.1075745 13.984375 3.6538696q3.34375 1.5306702 4.625 3.4835815q1.296875 1.9529114 1.296875 3.5466614q0 3.296875 -2.625 6.234833q-2.625 2.9223022 -6.484375 4.7823486q-8.28125 4.063904 -14.4375 4.0649414q-6.140625 0.0010681152 -8.484375 -1.8735352q-2.328125 -1.8746033 -2.328125 -4.4527283q0 -2.578125 1.3125 -4.750244q1.3125 -2.1877136 3.359375 -2.1880493q2.0625 -3.6621094E-4 2.0625 1.0777588z" fill-rule="nonzero"/></g></svg>